<svg width="17" height="17" viewBox="0 0 17 17" fill="none" xmlns="http://www.w3.org/2000/svg">
<path d="M14.8096 1.33377H14.034V0.0400391H12.7403V1.33377H4.20532V0.0400391H2.91159V1.33377H2.13597C1.06604 1.33377 0.195374 2.20443 0.195374 3.27436V14.6573C0.195374 15.7242 1.06604 16.5949 2.13597 16.5949H14.8096C15.8796 16.5949 16.7502 15.7242 16.7502 14.6543V3.27436C16.7502 2.20443 15.8796 1.33377 14.8096 1.33377ZM15.4565 14.6543C15.4565 15.0099 15.1652 15.3011 14.8096 15.3011H2.13597C1.78035 15.3011 1.4891 15.0099 1.4891 14.6543V6.11934H15.4565V14.6543ZM15.4565 4.82561H1.4891V3.27436C1.4891 2.91874 1.78035 2.6275 2.13597 2.6275H2.91159V3.92123H4.20532V2.6275H12.7403V3.92123H14.034V2.6275H14.8096C15.1652 2.6275 15.4565 2.91874 15.4565 3.27436V4.82561Z" fill="white"/>
<path d="M3.94778 7.47742H2.65405V8.77115H3.94778V7.47742Z" fill="white"/>
<path d="M6.53219 7.47742H5.23846V8.77115H6.53219V7.47742Z" fill="white"/>
<path d="M9.11969 7.47742H7.82596V8.77115H9.11969V7.47742Z" fill="white"/>
<path d="M11.7071 7.47742H10.4134V8.77115H11.7071V7.47742Z" fill="white"/>
<path d="M14.2946 7.47742H13.0008V8.77115H14.2946V7.47742Z" fill="white"/>
<path d="M3.94778 10.0649H2.65405V11.3587H3.94778V10.0649Z" fill="white"/>
<path d="M6.53219 10.0649H5.23846V11.3587H6.53219V10.0649Z" fill="white"/>
<path d="M9.11969 10.0649H7.82596V11.3587H9.11969V10.0649Z" fill="white"/>
<path d="M11.7071 10.0649H10.4134V11.3587H11.7071V10.0649Z" fill="white"/>
<path d="M3.94778 12.6494H2.65405V13.9431H3.94778V12.6494Z" fill="white"/>
<path d="M6.53219 12.6494H5.23846V13.9431H6.53219V12.6494Z" fill="white"/>
<path d="M9.11969 12.6494H7.82596V13.9431H9.11969V12.6494Z" fill="white"/>
<path d="M11.7071 12.6494H10.4134V13.9431H11.7071V12.6494Z" fill="white"/>
<path d="M14.2946 10.0649H13.0008V11.3587H14.2946V10.0649Z" fill="white"/>
</svg>
